<svg width="100" height="100" xmlns="http://www.w3.org/2000/svg" viewBox="0 0 100 100">
  <defs>
    <linearGradient id="sneaker" x1="0" y1="0" x2="0" y2="1">
      <stop offset="0%" stop-color="#A8D8C0"/>
      <stop offset="100%" stop-color="#7FB89E"/>
    </linearGradient>
  </defs>
  <circle cx="68" cy="26" r="10" fill="#F5D0C5"/>
  <path d="M30 42 L42 38 L56 44 L64 60" stroke="#4F8567" stroke-width="6" stroke-linecap="round" fill="none"/>
  <path d="M42 38 L36 58 L44 76" stroke="#4F8567" stroke-width="6" stroke-linecap="round" fill="none"/>
  <path d="M56 44 L70 34" stroke="#4F8567" stroke-width="6" stroke-linecap="round" fill="none"/>
  <path d="M36 58 L22 66" stroke="#4F8567" stroke-width="6" stroke-linecap="round" fill="none"/>
  <path d="M18 74 L62 74 Q76 74 80 64 L84 52 Q64 54 52 64 L18 74Z" fill="url(#sneaker)"/>
  <circle cx="32" cy="68" r="4" fill="#F5F0E6"/>
  <circle cx="48" cy="64" r="4" fill="#F5F0E6"/>
  <circle cx="64" cy="60" r="4" fill="#F5F0E6"/>
  <path d="M14 82 L86 82" stroke="#C8D9B8" stroke-width="3" stroke-linecap="round" opacity="0.5"/>
</svg>