<svg width="100" height="100" xmlns="http://www.w3.org/2000/svg" viewBox="0 0 100 100">
  <defs>
    <linearGradient id="bowl2" x1="0" y1="0" x2="0" y2="1">
      <stop offset="0%" stop-color="#EAF3E3"/>
      <stop offset="100%" stop-color="#D6E4CA"/>
    </linearGradient>
    <linearGradient id="leaf2" x1="0" y1="0" x2="1" y2="1">
      <stop offset="0%" stop-color="#A3CF8F"/>
      <stop offset="100%" stop-color="#7FB86C"/>
    </linearGradient>
  </defs>
  <ellipse cx="50" cy="74" rx="34" ry="9" fill="#C8D9B8" opacity="0.35"/>
  <path d="M22 52 Q50 42 78 52 L72 74 Q50 82 28 74Z" fill="url(#bowl2)"/>
  <path d="M50 30 Q64 34 68 50 Q70 60 60 68 Q50 74 40 68 Q30 60 32 50 Q36 34 50 30Z" fill="url(#leaf2)"/>
  <circle cx="42" cy="52" r="4.5" fill="#E8927C" opacity="0.85"/>
  <circle cx="58" cy="48" r="4" fill="#E8927C" opacity="0.8"/>
  <circle cx="50" cy="62" r="3.5" fill="#F4D58C"/>
  <path d="M34 42 Q28 34 34 26" stroke="#9FD288" stroke-width="3" stroke-linecap="round" fill="none"/>
  <path d="M66 42 Q72 34 66 26" stroke="#9FD288" stroke-width="3" stroke-linecap="round" fill="none"/>
</svg>